<svg id="visual" viewBox="0 0 900 600" width="900" height="600" xmlns="http://www.w3.org/2000/svg" xmlns:xlink="http://www.w3.org/1999/xlink" version="1.1"><path d="M0 398L21.5 391.2C43 384.3 86 370.7 128.8 379C171.7 387.3 214.3 417.7 257.2 417.2C300 416.7 343 385.3 385.8 373.7C428.7 362 471.3 370 514.2 385.7C557 401.3 600 424.7 642.8 436.2C685.7 447.7 728.3 447.3 771.2 445.8C814 444.3 857 441.7 878.5 440.3L900 439L900 601L878.5 601C857 601 814 601 771.2 601C728.3 601 685.7 601 642.8 601C600 601 557 601 514.2 601C471.3 601 428.7 601 385.8 601C343 601 300 601 257.2 601C214.3 601 171.7 601 128.8 601C86 601 43 601 21.5 601L0 601Z" fill="#fa7268"></path><path d="M0 471L21.5 471.5C43 472 86 473 128.8 471.8C171.7 470.7 214.3 467.3 257.2 460.5C300 453.7 343 443.3 385.8 444.8C428.7 446.3 471.3 459.7 514.2 460.8C557 462 600 451 642.8 449.2C685.7 447.3 728.3 454.7 771.2 455.3C814 456 857 450 878.5 447L900 444L900 601L878.5 601C857 601 814 601 771.2 601C728.3 601 685.7 601 642.8 601C600 601 557 601 514.2 601C471.3 601 428.7 601 385.8 601C343 601 300 601 257.2 601C214.3 601 171.7 601 128.8 601C86 601 43 601 21.5 601L0 601Z" fill="#ef5f67"></path><path d="M0 457L21.5 460C43 463 86 469 128.8 476.2C171.7 483.3 214.3 491.7 257.2 490C300 488.3 343 476.7 385.8 470.7C428.7 464.7 471.3 464.3 514.2 461C557 457.7 600 451.3 642.8 447C685.7 442.7 728.3 440.3 771.2 444.5C814 448.7 857 459.3 878.5 464.7L900 470L900 601L878.5 601C857 601 814 601 771.2 601C728.3 601 685.7 601 642.8 601C600 601 557 601 514.2 601C471.3 601 428.7 601 385.8 601C343 601 300 601 257.2 601C214.3 601 171.7 601 128.8 601C86 601 43 601 21.5 601L0 601Z" fill="#e34c67"></path><path d="M0 490L21.5 490.2C43 490.3 86 490.7 128.8 498.2C171.7 505.7 214.3 520.3 257.2 522C300 523.7 343 512.3 385.8 504.7C428.7 497 471.3 493 514.2 496.5C557 500 600 511 642.8 515.3C685.7 519.7 728.3 517.3 771.2 518.2C814 519 857 523 878.5 525L900 527L900 601L878.5 601C857 601 814 601 771.2 601C728.3 601 685.7 601 642.8 601C600 601 557 601 514.2 601C471.3 601 428.7 601 385.8 601C343 601 300 601 257.2 601C214.3 601 171.7 601 128.8 601C86 601 43 601 21.5 601L0 601Z" fill="#d53867"></path><path d="M0 549L21.5 545C43 541 86 533 128.8 534.7C171.7 536.3 214.3 547.7 257.2 547.8C300 548 343 537 385.8 538.7C428.7 540.3 471.3 554.7 514.2 559.2C557 563.7 600 558.3 642.8 557C685.7 555.7 728.3 558.3 771.2 557.5C814 556.7 857 552.3 878.5 550.2L900 548L900 601L878.5 601C857 601 814 601 771.2 601C728.3 601 685.7 601 642.8 601C600 601 557 601 514.2 601C471.3 601 428.7 601 385.8 601C343 601 300 601 257.2 601C214.3 601 171.7 601 128.8 601C86 601 43 601 21.5 601L0 601Z" fill="#c62368"></path></svg>