<svg id="visual" viewBox="0 0 900 600" width="900" height="600" xmlns="http://www.w3.org/2000/svg" xmlns:xlink="http://www.w3.org/1999/xlink" version="1.1"><path d="M0 479L10 482.3C20 485.7 40 492.3 60 494.7C80 497 100 495 120 489.3C140 483.7 160 474.3 180 480.3C200 486.3 220 507.7 240 518.5C260 529.3 280 529.7 300 525.7C320 521.7 340 513.3 360 501.3C380 489.3 400 473.7 420 472C440 470.3 460 482.7 480 486C500 489.3 520 483.7 540 485C560 486.3 580 494.7 600 499.5C620 504.3 640 505.7 660 504.8C680 504 700 501 720 497.8C740 494.7 760 491.3 780 492.2C800 493 820 498 840 497.5C860 497 880 491 890 488L900 485L900 601L890 601C880 601 860 601 840 601C820 601 800 601 780 601C760 601 740 601 720 601C700 601 680 601 660 601C640 601 620 601 600 601C580 601 560 601 540 601C520 601 500 601 480 601C460 601 440 601 420 601C400 601 380 601 360 601C340 601 320 601 300 601C280 601 260 601 240 601C220 601 200 601 180 601C160 601 140 601 120 601C100 601 80 601 60 601C40 601 20 601 10 601L0 601Z" fill="#fa7268"></path><path d="M0 544L10 540.8C20 537.7 40 531.3 60 526.7C80 522 100 519 120 514.5C140 510 160 504 180 508C200 512 220 526 240 532.3C260 538.7 280 537.3 300 531.5C320 525.7 340 515.3 360 513C380 510.7 400 516.3 420 521.7C440 527 460 532 480 532.7C500 533.3 520 529.7 540 527.7C560 525.7 580 525.3 600 520C620 514.7 640 504.3 660 499.5C680 494.7 700 495.3 720 498.5C740 501.7 760 507.3 780 509.7C800 512 820 511 840 507.3C860 503.7 880 497.3 890 494.2L900 491L900 601L890 601C880 601 860 601 840 601C820 601 800 601 780 601C760 601 740 601 720 601C700 601 680 601 660 601C640 601 620 601 600 601C580 601 560 601 540 601C520 601 500 601 480 601C460 601 440 601 420 601C400 601 380 601 360 601C340 601 320 601 300 601C280 601 260 601 240 601C220 601 200 601 180 601C160 601 140 601 120 601C100 601 80 601 60 601C40 601 20 601 10 601L0 601Z" fill="#f16367"></path><path d="M0 537L10 539.7C20 542.3 40 547.7 60 546.2C80 544.7 100 536.3 120 528.2C140 520 160 512 180 515.2C200 518.3 220 532.7 240 537C260 541.3 280 535.7 300 528.3C320 521 340 512 360 512.7C380 513.3 400 523.7 420 526.2C440 528.7 460 523.3 480 520.5C500 517.7 520 517.3 540 521.3C560 525.3 580 533.7 600 539.5C620 545.3 640 548.7 660 550.5C680 552.3 700 552.7 720 551.8C740 551 760 549 780 543.5C800 538 820 529 840 522.8C860 516.7 880 513.3 890 511.7L900 510L900 601L890 601C880 601 860 601 840 601C820 601 800 601 780 601C760 601 740 601 720 601C700 601 680 601 660 601C640 601 620 601 600 601C580 601 560 601 540 601C520 601 500 601 480 601C460 601 440 601 420 601C400 601 380 601 360 601C340 601 320 601 300 601C280 601 260 601 240 601C220 601 200 601 180 601C160 601 140 601 120 601C100 601 80 601 60 601C40 601 20 601 10 601L0 601Z" fill="#e85467"></path><path d="M0 564L10 562.5C20 561 40 558 60 557.2C80 556.3 100 557.7 120 556.7C140 555.7 160 552.3 180 551.2C200 550 220 551 240 549.2C260 547.3 280 542.7 300 543C320 543.3 340 548.7 360 546.8C380 545 400 536 420 533.7C440 531.3 460 535.7 480 541.8C500 548 520 556 540 558.5C560 561 580 558 600 552.3C620 546.7 640 538.3 660 537.7C680 537 700 544 720 546.8C740 549.7 760 548.3 780 550.7C800 553 820 559 840 557.5C860 556 880 547 890 542.5L900 538L900 601L890 601C880 601 860 601 840 601C820 601 800 601 780 601C760 601 740 601 720 601C700 601 680 601 660 601C640 601 620 601 600 601C580 601 560 601 540 601C520 601 500 601 480 601C460 601 440 601 420 601C400 601 380 601 360 601C340 601 320 601 300 601C280 601 260 601 240 601C220 601 200 601 180 601C160 601 140 601 120 601C100 601 80 601 60 601C40 601 20 601 10 601L0 601Z" fill="#de4467"></path><path d="M0 570L10 570.7C20 571.3 40 572.7 60 571C80 569.3 100 564.7 120 560.2C140 555.7 160 551.3 180 552.5C200 553.7 220 560.3 240 563C260 565.7 280 564.3 300 560.7C320 557 340 551 360 551.8C380 552.7 400 560.3 420 561.2C440 562 460 556 480 556.7C500 557.3 520 564.7 540 566C560 567.3 580 562.7 600 557.8C620 553 640 548 660 548.3C680 548.7 700 554.3 720 554.8C740 555.3 760 550.7 780 551.3C800 552 820 558 840 557.3C860 556.7 880 549.3 890 545.7L900 542L900 601L890 601C880 601 860 601 840 601C820 601 800 601 780 601C760 601 740 601 720 601C700 601 680 601 660 601C640 601 620 601 600 601C580 601 560 601 540 601C520 601 500 601 480 601C460 601 440 601 420 601C400 601 380 601 360 601C340 601 320 601 300 601C280 601 260 601 240 601C220 601 200 601 180 601C160 601 140 601 120 601C100 601 80 601 60 601C40 601 20 601 10 601L0 601Z" fill="#d23467"></path><path d="M0 579L10 576.2C20 573.3 40 567.7 60 568.8C80 570 100 578 120 580.7C140 583.3 160 580.7 180 576.5C200 572.3 220 566.7 240 566.7C260 566.7 280 572.3 300 576.5C320 580.7 340 583.3 360 584.2C380 585 400 584 420 581.3C440 578.7 460 574.3 480 572.5C500 570.7 520 571.3 540 572.3C560 573.3 580 574.7 600 573C620 571.3 640 566.7 660 566.2C680 565.7 700 569.3 720 570.2C740 571 760 569 780 570.7C800 572.3 820 577.7 840 577.7C860 577.7 880 572.3 890 569.7L900 567L900 601L890 601C880 601 860 601 840 601C820 601 800 601 780 601C760 601 740 601 720 601C700 601 680 601 660 601C640 601 620 601 600 601C580 601 560 601 540 601C520 601 500 601 480 601C460 601 440 601 420 601C400 601 380 601 360 601C340 601 320 601 300 601C280 601 260 601 240 601C220 601 200 601 180 601C160 601 140 601 120 601C100 601 80 601 60 601C40 601 20 601 10 601L0 601Z" fill="#c62368"></path></svg>